<svg id="Capa_1" data-name="Capa 1" xmlns="http://www.w3.org/2000/svg" xmlns:xlink="http://www.w3.org/1999/xlink" viewBox="0 0 630.28 634.26"><defs><style>.cls-1{fill:none;}.cls-2{clip-path:url(#clip-path);}.cls-3{fill:#fff;}</style><clipPath id="clip-path" transform="translate(-71.86 -23.87)"><rect class="cls-1" x="-289.29" y="-247.05" width="1352.58" height="1176.1"/></clipPath></defs><title>logofullduck</title><g class="cls-2"><path class="cls-3" d="M396.72,211.83c.6,35,52.63,35,53.23,0-.6-35-52.63-35-53.23,0" transform="translate(-71.86 -23.87)"/><path class="cls-3" d="M624.86,126C568,60.42,487.15,25.11,391,23.9,317.28,23,249.66,44.39,195.53,85.84,146.4,123.44,109.58,176,89.09,237.77,68.76,299.15,66.33,366.35,82.29,427,99.6,492.83,137.1,548.2,190.74,587.12a189,189,0,0,0,98.86,36,191.06,191.06,0,0,0,96.92-19.64,188.75,188.75,0,0,0,73.3-64.11,185.23,185.23,0,0,0,30.84-98.89c1-43.88-12-84.21-37.67-117,33.92-26.32,65.55-46.91,95.33-65.69q3.91-2.55,7.69-5.29l.06,0h0a159,159,0,0,0,13.62-11c15.14-17.37-34.27-14.59-65.56-34-3.81-29.22-16.62-54-37.6-72.46-21.74-19.15-50.68-29.69-81.42-29.69S325.43,115.89,303.69,135c-24.77,21.74-38.17,52.45-38.79,88.67l0,.47,0,.36c.62,36.29,14,67,38.75,88.77C325.43,332.43,354.33,343,385.1,343a130,130,0,0,0,24.18-2.27c24.76,25.82,37.9,60.77,37,98.67-1.25,53.79-31,100.27-79.45,124.31-49.43,24.46-105.52,19.8-150.06-12.52C113.85,476.51,99.66,347,131.23,251.73c29.52-89,111.92-183.46,255.09-183.46h4.1C574.87,70.6,658.29,212.55,657.77,343.46c-.5,119.22-71.77,247.67-226.19,267.61a1.46,1.46,0,0,1,.09-.13c-.09.06-.19.09-.29.16-22.07,12.28-40.53,22.6-61.52,31.17-7.29,3-14.87,5.75-23,8.34,11.33,4.57,26.73,7.52,43.94,7.52h.86c95.28-.62,175.58-34.94,232.2-99.22,50.15-56.92,78-133.37,78.3-215.29C702.47,261.26,675,184,624.86,126M385.1,298.6c-37,0-74.78-23-75.83-74.42,1.05-51.44,38.85-74.46,75.83-74.46s74.79,23,75.84,74.46c-1.05,51.43-38.86,74.42-75.84,74.42" transform="translate(-71.86 -23.87)"/><path class="cls-3" d="M321.43,445.87a39.78,39.78,0,0,1-10.14,4.83c-8.15,2.71-18.19,4.32-28.73,5.06-5.28.37-10.71.61-16.26.68l-4.16.08-4.2-.1c-2.83,0-5.65.07-8.51-.1-19-.33-38.48-2-59.19-2.41a4.51,4.51,0,0,0-2.78,8.12c1.61,1.16,3.24,2.28,4.9,3.34,2.63,1.78,5.32,3.41,8,5.1s5.51,3.06,8.28,4.6A193.6,193.6,0,0,0,244,489.44a157.76,157.76,0,0,0,18.94,4.49c3.22.58,6.45,1.23,9.78,1.51s6.6.79,10,.86c13.48.65,27.7-.31,42.43-5.22a49.37,49.37,0,0,0,5.52-2.15c1.84-.83,3.68-1.5,5.51-2.52a70.23,70.23,0,0,0,10.75-7,39.82,39.82,0,0,0,5-4.44,60.36,60.36,0,0,0,4.64-5.07c1.39-1.89,2.73-3.82,4-5.75a61.41,61.41,0,0,0,3.2-6.26,36.62,36.62,0,0,0,2.4-6.5,40.91,40.91,0,0,0,1.55-6.6c.32-2.18.6-4.37.79-6.55,0-2.11,0-4.2-.1-6.28,0-1-.05-2.09-.14-3.1l-.43-2.95c-.31-2-.58-3.91-1-5.82-1.1-3.59-2-7.33-3.36-10.64-5.34-13.48-13.1-24.44-21.8-34-2.3-2.31-4.52-4.62-6.83-6.85s-4.78-4.26-7.25-6.29c-1.5-1.29-3.06-2.52-4.67-3.71a4.49,4.49,0,0,0-6.91,5.1c2.68,7.71,5.42,15.1,7.74,22.46,3.49,11.13,6.42,22,7.36,31.8,1.15,9.9-.63,17.82-3.67,22.09a19.33,19.33,0,0,1-6.09,5.84" transform="translate(-71.86 -23.87)"/></g></svg>