<svg id="Capa_1" data-name="Capa 1" xmlns="http://www.w3.org/2000/svg" xmlns:xlink="http://www.w3.org/1999/xlink" viewBox="0 0 216 35"><defs><style>.cls-1{fill:none;}.cls-2{fill:#fff;}.cls-3{clip-path:url(#clip-path);}.cls-4{fill:#fcfcfc;}</style><clipPath id="clip-path"><rect class="cls-1" x="-73.11" y="-104.34" width="362.21" height="243.67"/></clipPath></defs><title>logosvg</title><polygon class="cls-2" points="58.01 24.7 55.62 24.7 55.62 13.43 51.35 13.43 51.35 11.23 62.28 11.23 62.28 13.43 58.01 13.43 58.01 24.7"/><g class="cls-3"><path class="cls-2" d="M65.78,24.7H63.43v-14h2.35v5.48a5.31,5.31,0,0,1,.54-.69,3.33,3.33,0,0,1,.7-.58,3.54,3.54,0,0,1,.86-.39,3.48,3.48,0,0,1,1.06-.15,3.38,3.38,0,0,1,2.67,1.06,4.1,4.1,0,0,1,.94,2.85V24.7H70.2V18.94a2.72,2.72,0,0,0-.56-1.83,2,2,0,0,0-1.59-.64,2.15,2.15,0,0,0-1.64.66A2.58,2.58,0,0,0,65.78,19Z"/><path class="cls-2" d="M77.17,22.36a2.88,2.88,0,0,0,1.92.67,3.46,3.46,0,0,0,1.5-.31,5,5,0,0,0,1.25-.91L83.21,23a5.84,5.84,0,0,1-1.74,1.38,5.21,5.21,0,0,1-2.42.52,5.57,5.57,0,0,1-2-.38,5.13,5.13,0,0,1-1.65-1.08,5,5,0,0,1-1.11-1.67,5.51,5.51,0,0,1-.4-2.16,5.83,5.83,0,0,1,.36-2.06,5.07,5.07,0,0,1,2.6-2.83,4.68,4.68,0,0,1,2-.42,4.91,4.91,0,0,1,2.13.44A4.5,4.5,0,0,1,82.45,16a5.11,5.11,0,0,1,.91,1.75,6.87,6.87,0,0,1,.31,2.09c0,.11,0,.21,0,.31l0,.33H76.17a3,3,0,0,0,1,1.91m4.19-3.45a4,4,0,0,0-.25-1.05,2.7,2.7,0,0,0-.52-.85,2.59,2.59,0,0,0-.78-.56,2.4,2.4,0,0,0-1-.22A2.33,2.33,0,0,0,77,17a3.28,3.28,0,0,0-.85,1.93Z"/><path class="cls-2" d="M101.79,20.61a6.43,6.43,0,0,1-1.47,2.15,7.11,7.11,0,0,1-2.27,1.42,7.79,7.79,0,0,1-2.9.52h-5V11.23h5a8,8,0,0,1,2.9.51,6.77,6.77,0,0,1,2.27,1.42,6.35,6.35,0,0,1,1.47,2.13,7.06,7.06,0,0,1,0,5.32m-2.3-4.47a4.39,4.39,0,0,0-.95-1.46,4.17,4.17,0,0,0-1.47-1,5,5,0,0,0-1.93-.35H92.48v9.19h2.66a5.39,5.39,0,0,0,1.93-.33,4.15,4.15,0,0,0,1.47-.95,4.35,4.35,0,0,0,.95-1.45A5,5,0,0,0,99.83,18a5,5,0,0,0-.34-1.85"/><path class="cls-2" d="M110.6,14.54H113V24.7H110.6V23.11a5,5,0,0,1-1.25,1.27,3.27,3.27,0,0,1-1.92.53,3.34,3.34,0,0,1-2.66-1.06,4.09,4.09,0,0,1-.94-2.84V14.54h2.35V20.3a2.67,2.67,0,0,0,.56,1.83,2,2,0,0,0,1.59.65,2.18,2.18,0,0,0,1.64-.67,2.58,2.58,0,0,0,.63-1.85Z"/><path class="cls-2" d="M122.06,24.4a5,5,0,0,1-2.44.53,5.16,5.16,0,0,1-3.77-1.55,5.41,5.41,0,0,1-1.1-5.78,5.31,5.31,0,0,1,1.1-1.69,5.49,5.49,0,0,1,1.68-1.16,5.26,5.26,0,0,1,2.11-.42,5.34,5.34,0,0,1,2.4.48,5.73,5.73,0,0,1,1.66,1.27l-1.44,1.56a5.11,5.11,0,0,0-1.15-.91,2.86,2.86,0,0,0-1.49-.36,2.71,2.71,0,0,0-1.17.26,2.92,2.92,0,0,0-.93.7,3.62,3.62,0,0,0-.6,1,3.48,3.48,0,0,0-.22,1.26,3.64,3.64,0,0,0,.22,1.29,3.2,3.2,0,0,0,.62,1,3,3,0,0,0,1,.7,2.91,2.91,0,0,0,1.23.26,2.86,2.86,0,0,0,1.45-.36,5.26,5.26,0,0,0,1.18-.91L123.78,23a6.3,6.3,0,0,1-1.72,1.37"/><polygon class="cls-2" points="134.45 24.7 131.76 24.7 128.7 20.31 127.28 21.8 127.28 24.7 124.93 24.7 124.93 10.66 127.28 10.66 127.28 19.04 131.49 14.54 134.32 14.54 130.28 18.68 134.45 24.7"/><rect class="cls-2" x="135.3" y="10.66" width="2.35" height="14.04"/><path class="cls-2" d="M139.74,10.77h2.52V13h-2.52Zm.1,3.77h2.35V24.7h-2.35Z"/><path class="cls-2" d="M146.59,24.7h-2.35V14.54h2.35v1.6a5.37,5.37,0,0,1,.55-.69,3.49,3.49,0,0,1,2.62-1.12,3.34,3.34,0,0,1,2.66,1.06,4.1,4.1,0,0,1,.94,2.85V24.7H151V18.94a2.67,2.67,0,0,0-.57-1.83,2,2,0,0,0-1.59-.64,2.17,2.17,0,0,0-1.64.66,2.58,2.58,0,0,0-.63,1.85Z"/><path class="cls-2" d="M163.77,26.57a6,6,0,0,1-4,1.25,8.57,8.57,0,0,1-4.54-1.22l.87-1.75a7.22,7.22,0,0,0,1.69.79,6.23,6.23,0,0,0,1.92.29,3.31,3.31,0,0,0,2.39-.79,3.11,3.11,0,0,0,.83-2.34V22a5.65,5.65,0,0,1-1.49,1.36,3.88,3.88,0,0,1-2.09.52,4.58,4.58,0,0,1-1.73-.32,4.31,4.31,0,0,1-1.48-.93,4.43,4.43,0,0,1-1-1.5,5.43,5.43,0,0,1,0-4,4.43,4.43,0,0,1,1-1.5,4.54,4.54,0,0,1,1.49-.94,4.61,4.61,0,0,1,1.72-.33,3.9,3.9,0,0,1,2.12.52,5.72,5.72,0,0,1,1.44,1.23V14.54h2.32v8.08a5,5,0,0,1-1.42,3.95M162.66,18a2.6,2.6,0,0,0-.64-.88,2.94,2.94,0,0,0-1-.57,3.43,3.43,0,0,0-1.15-.2,3.15,3.15,0,0,0-1.13.2,2.9,2.9,0,0,0-.92.57,2.52,2.52,0,0,0-.61.88A2.79,2.79,0,0,0,157,19.1a2.72,2.72,0,0,0,.23,1.15,2.93,2.93,0,0,0,.61.89,2.7,2.7,0,0,0,.92.57,3.22,3.22,0,0,0,1.12.2,3.43,3.43,0,0,0,1.15-.2,2.75,2.75,0,0,0,1.59-1.45,2.64,2.64,0,0,0,.24-1.14,2.77,2.77,0,0,0-.24-1.16"/><path class="cls-2" d="M182.84,23.54a7.8,7.8,0,0,1-1.22.75,6.16,6.16,0,0,1-1.43.48,8.32,8.32,0,0,1-1.72.16,6.79,6.79,0,0,1-2.73-.54,6.62,6.62,0,0,1-3.6-3.67,7.1,7.1,0,0,1-.52-2.73,7.23,7.23,0,0,1,.51-2.72,6.7,6.7,0,0,1,3.62-3.72,7.15,7.15,0,0,1,2.81-.55,8,8,0,0,1,1.69.16,6.45,6.45,0,0,1,1.39.43,7,7,0,0,1,1.17.66,9.19,9.19,0,0,1,1,.85l-1.52,1.75a7.3,7.3,0,0,0-1.71-1.21,4.43,4.43,0,0,0-2.06-.46,4.24,4.24,0,0,0-1.78.37,4.47,4.47,0,0,0-1.41,1,4.54,4.54,0,0,0-.92,1.51,5.46,5.46,0,0,0,0,3.74,4.53,4.53,0,0,0,.92,1.53,4.35,4.35,0,0,0,1.41,1,4.24,4.24,0,0,0,1.78.38,4.51,4.51,0,0,0,2.12-.47A9,9,0,0,0,182.41,21l1.52,1.53a8.44,8.44,0,0,1-1.09,1"/><path class="cls-2" d="M194.85,21.68A5.35,5.35,0,0,1,192,24.51a5.56,5.56,0,0,1-2.17.42,5.64,5.64,0,0,1-2.15-.41A5.28,5.28,0,0,1,186,15.9a5.36,5.36,0,0,1,3.88-1.57,5.65,5.65,0,0,1,2.16.41,5.34,5.34,0,0,1,1.71,1.14,5.35,5.35,0,0,1,1.12,5.8m-2.17-3.29a3.12,3.12,0,0,0-.64-1.05,2.87,2.87,0,0,0-1-.71,3,3,0,0,0-1.25-.26,2.94,2.94,0,0,0-2.83,2,3.7,3.7,0,0,0-.21,1.26A3.42,3.42,0,0,0,187,20.9a3.12,3.12,0,0,0,.64,1.05,3.09,3.09,0,0,0,1,.7,3,3,0,0,0,1.24.26,2.94,2.94,0,0,0,2.84-2,3.7,3.7,0,0,0,.21-1.26,3.37,3.37,0,0,0-.23-1.27"/><rect class="cls-2" x="196.13" y="22.06" width="2.56" height="2.64"/><path class="cls-4" d="M32,11.65a1.21,1.21,0,0,0,2.41,0,1.21,1.21,0,0,0-2.41,0"/><path class="cls-2" d="M42.37,7.76a13.74,13.74,0,0,0-10.6-4.63A13.8,13.8,0,0,0,18.1,12.82a15.13,15.13,0,0,0-.31,8.58,12.85,12.85,0,0,0,4.91,7.25,8.64,8.64,0,0,0,12.2-2.16A8.37,8.37,0,0,0,36.29,22a8.14,8.14,0,0,0-1.7-5.3,49.3,49.3,0,0,1,4.32-3l.34-.24h0a7.37,7.37,0,0,0,.61-.5c.69-.79-1.55-.66-3-1.54a5.13,5.13,0,0,0-1.7-3.28,5.72,5.72,0,0,0-7.38,0,5.29,5.29,0,0,0-1.76,4v0h0a5.34,5.34,0,0,0,1.76,4,5.61,5.61,0,0,0,3.69,1.34,5.92,5.92,0,0,0,1.1-.1A6.17,6.17,0,0,1,34.28,22a6.34,6.34,0,0,1-3.6,5.63,6.5,6.5,0,0,1-6.8-.56c-4.66-3.39-5.31-9.26-3.88-13.58A11.87,11.87,0,0,1,31.56,5.14h.19c8.36.11,12.14,6.54,12.12,12.47,0,5.4-3.26,11.23-10.25,12.13h0a25.22,25.22,0,0,1-2.79,1.41c-.33.14-.67.26-1,.38a5.39,5.39,0,0,0,2,.34h0a13.7,13.7,0,0,0,10.52-4.49,14.84,14.84,0,0,0,3.55-9.76,14.9,14.9,0,0,0-3.51-9.86M31.51,15.58a3.27,3.27,0,0,1-3.44-3.37,3.28,3.28,0,0,1,3.44-3.38A3.28,3.28,0,0,1,35,12.21a3.27,3.27,0,0,1-3.44,3.37"/><path class="cls-4" d="M28.62,22.25a1.41,1.41,0,0,1-.46.22,5.31,5.31,0,0,1-1.3.23c-.24,0-.48,0-.73,0h-.77c-.86,0-1.74-.09-2.68-.11a.2.2,0,0,0-.13.36l.23.16.36.23.37.21a9.75,9.75,0,0,0,1.6.65,8.26,8.26,0,0,0,.86.2,3.25,3.25,0,0,0,.45.07l.45,0a5.2,5.2,0,0,0,1.92-.24,1.3,1.3,0,0,0,.25-.1,1.12,1.12,0,0,0,.25-.11,3.74,3.74,0,0,0,.49-.32,1.43,1.43,0,0,0,.23-.2,2.4,2.4,0,0,0,.21-.23l.18-.26a2.82,2.82,0,0,0,.25-.58,1.63,1.63,0,0,0,.07-.3,2.89,2.89,0,0,0,0-.29v-.29a.66.66,0,0,1,0-.14l0-.13c0-.09,0-.18,0-.27a3.86,3.86,0,0,0-.16-.48,5,5,0,0,0-1-1.54c-.11-.1-.21-.21-.31-.31l-.33-.29-.21-.16a.21.21,0,0,0-.32.23c.12.35.25.68.35,1A7.64,7.64,0,0,1,29.07,21a1.5,1.5,0,0,1-.17,1,.79.79,0,0,1-.28.26"/></g></svg>