<svg xmlns="http://www.w3.org/2000/svg" viewBox="0 0 353 450"><defs><style>.cls-1{fill:#fff;}.cls-2{font-size:40.57px;fill:#2b3087;font-family:Gotham-Bold, Gotham;font-weight:700;}.cls-3{letter-spacing:-0.01em;}.cls-4{fill:#ca9a2c;opacity:0.72;}.cls-5{fill:#010101;}</style></defs><title>coming soon</title><g id="Capa_1" data-name="Capa 1"><rect class="cls-1" width="353" height="450"/><text class="cls-2" transform="translate(127.57 244.72)">Meta<tspan class="cls-3" x="100.93" y="0">P</tspan><tspan x="127.63" y="0">a</tspan><tspan class="cls-3" x="151.65" y="0">s</tspan><tspan x="171.61" y="0">s</tspan></text></g><g id="Capa_3" data-name="Capa 3"><rect class="cls-4" x="57.13" y="209.55" width="59.32" height="37.96" rx="3.83"/><path d="M108.26,223v.19c0,.78,0,1.55,0,2.33,0,.15,0,.18-.18.18q-.84,0-1.68,0c-.11,0-.15,0-.15-.15v-4.88a.3.3,0,0,1,.06-.18c.38-.51.76-1,1.15-1.52a.27.27,0,0,1,.18-.1h.58v2.32l0,0a15.34,15.34,0,0,0,1.92,0,1.32,1.32,0,0,0,1-1.93,1.18,1.18,0,0,0-1-.7,3.8,3.8,0,0,0-.59-.06h-2.24a.26.26,0,0,0-.22.11,46.42,46.42,0,0,0-2.68,3.85c-.24.38-.49.75-.73,1.12-.1.15-.11.15-.21,0L101.26,220l-.06-.1v5.78h-2v-9h2a.19.19,0,0,1,.2.11l2.2,3.53.08.13.07-.09c.73-1.18,1.47-2.36,2.2-3.55a.25.25,0,0,1,.25-.14h3.85a3.52,3.52,0,0,1,2.19.71,2.81,2.81,0,0,1,1.08,2,3.29,3.29,0,0,1-.24,1.7,3,3,0,0,1-2,1.67,5.09,5.09,0,0,1-1.46.19h-1.41Z"/><path class="cls-5" d="M89.8,252.72a1.06,1.06,0,0,0-1.1,1.09v2.56H48.19V200.88H88.7v2.56a1.1,1.1,0,0,0,2.2,0V194.5a6.16,6.16,0,0,0-6.21-6.21H51.84a6.24,6.24,0,0,0-6,6.21v68.07A6.16,6.16,0,0,0,52,268.78H84.87a6.16,6.16,0,0,0,6.21-6.21v-8.76a1.22,1.22,0,0,0-1.28-1.09ZM52,190.66H84.87a3.75,3.75,0,0,1,3.83,3.84v3.83H48.19V194.5A3.86,3.86,0,0,1,52,190.66Zm32.85,75.93H52a3.74,3.74,0,0,1-3.83-3.83v-3.84H88.7v3.84a4,4,0,0,1-3.83,3.83Z"/><path class="cls-5" d="M112.61,207.27H61a6.16,6.16,0,0,0-6.2,6.21v30.3A6.15,6.15,0,0,0,61,250h51.65a6.16,6.16,0,0,0,6.21-6.2v-30.3a6.16,6.16,0,0,0-6.21-6.21Zm3.84,36.51a3.75,3.75,0,0,1-3.84,3.83H61a3.74,3.74,0,0,1-3.83-3.83v-30.3A3.74,3.74,0,0,1,61,209.65h51.65a3.75,3.75,0,0,1,3.84,3.83Z"/><path class="cls-5" d="M63.7,226.07h9.49a1.44,1.44,0,0,0,1.46-1.46v-6.94a1.44,1.44,0,0,0-1.46-1.46H63.7a1.44,1.44,0,0,0-1.46,1.46v6.94A1.57,1.57,0,0,0,63.7,226.07Zm8.58-2.37H69.54v-5.3h2.74Zm-7.67-5.3h2.74v5.3H64.61Z"/><path class="cls-5" d="M69.17,264.22a1.28,1.28,0,1,0,0-2.56H66.44a1.28,1.28,0,1,0,0,2.56Z"/><path class="cls-5" d="M67.17,236.29a1.28,1.28,0,1,0,0-2.55H64.43a1.28,1.28,0,1,0,0,2.55Z"/><path class="cls-5" d="M80.86,236.29a1.28,1.28,0,0,0,0-2.55H78.12a1.28,1.28,0,1,0,0,2.55Z"/><path class="cls-5" d="M94.36,236.29a1.28,1.28,0,1,0,0-2.55H91.63a1.28,1.28,0,1,0,0,2.55Z"/><path class="cls-5" d="M107.69,236.29a1.28,1.28,0,0,0,0-2.55H105a1.28,1.28,0,1,0,0,2.55Z"/><path class="cls-5" d="M64.43,240.12a1.28,1.28,0,0,0,0,2.56H84.69a1.28,1.28,0,0,0,0-2.56Z"/><path class="cls-5" d="M94.36,242.68a1.28,1.28,0,0,0,0-2.56H91.63a1.28,1.28,0,0,0,0,2.56Z"/></g></svg>