<svg xmlns="http://www.w3.org/2000/svg" viewBox="0 0 353 450"><defs><style>.cls-1{fill:#5d52a3;}.cls-2{font-size:40.57px;fill:#fff;font-family:Gotham-Bold, Gotham;font-weight:700;}.cls-3{letter-spacing:-0.03em;}.cls-4{letter-spacing:-0.02em;}.cls-5{fill:#c878b1;opacity:0.25;}.cls-6{fill:#48c2c5;}</style></defs><title>coming soon</title><g id="Capa_2" data-name="Capa 2"><rect class="cls-1" width="353" height="450"/><text class="cls-2" transform="translate(127.57 244.72)">Omni<tspan class="cls-3" x="110.55" y="0">K</tspan><tspan class="cls-4" x="138.95" y="0">e</tspan><tspan x="162.8" y="0">y</tspan></text><path class="cls-5" d="M114.47,212.8h0a17.17,17.17,0,0,0-32.12-7.49,8,8,0,0,0-10.22,3.11,14.89,14.89,0,1,0-3.47,29.38H82.41v1.7a14.9,14.9,0,1,0,13.75,0v-1.7h16a12.6,12.6,0,0,0,2.27-25Z"/><path class="cls-6" d="M114.47,212.8h0a17.17,17.17,0,0,0-32.12-7.49,8,8,0,0,0-10.22,3.11,14.89,14.89,0,1,0-3.47,29.38H82.41v1.7a14.9,14.9,0,1,0,13.75,0v-1.7h16a12.6,12.6,0,0,0,2.27-25Zm-32,22.73c.13.79-.26,1.57,0,2.36C82.19,237.1,82.58,236.32,82.45,235.53Zm19.44,17.17h0A12.61,12.61,0,1,1,84,241.25l.66-.3v-7.16l5.35-4-5.35-4v-.57h9.17V241l.67.3A12.66,12.66,0,0,1,101.89,252.7Zm10.32-17.19h-16v0h0V225.2H99.6v-2.29H79v2.29h3.43v1.72l3.82,2.86-3.82,2.87v2.86H68.66a12.61,12.61,0,1,1,3.72-24.65l1,.3.42-.92a5.74,5.74,0,0,1,8.42-2.4l1.1.75.57-1.21a14.89,14.89,0,0,1,28.36,6.29v1.17l1,.1a10.31,10.31,0,0,1-1,20.57Z"/><path class="cls-6" d="M89.29,251.55A5.73,5.73,0,1,0,95,257.28,5.74,5.74,0,0,0,89.29,251.55Zm0,9.17a3.44,3.44,0,1,1,3.44-3.44A3.44,3.44,0,0,1,89.29,260.72Z"/></g></svg>