<svg xmlns="http://www.w3.org/2000/svg" viewBox="0 0 353 450"><defs><style>.cls-1{fill:#ffcd05;}</style></defs><title>coming soon</title><g id="Capa_3" data-name="Capa 3"><rect class="cls-1" width="353" height="450"/><path d="M144.71,214.55v14h-3.86v-14h-5.34V211H150v3.55Z"/><path d="M161.09,228.54V221c0-1.8-.85-2.73-2.3-2.73s-2.38.93-2.38,2.73v7.5H152.6v-18.3h3.81V217a4.75,4.75,0,0,1,3.93-2.16c2.88,0,4.56,1.91,4.56,5v8.7Z"/><path d="M180.69,223.15h-9.35a3.12,3.12,0,0,0,3.29,2.63,4.39,4.39,0,0,0,3.25-1.38l2.18,1.93a7.09,7.09,0,0,1-12.5-4.43v-.05a6.69,6.69,0,0,1,6.64-7c4.48,0,6.54,3.49,6.54,7.3v0C180.74,222.57,180.71,222.8,180.69,223.15Zm-6.49-5.24c-1.58,0-2.61,1.13-2.91,2.86H177C176.8,219.06,175.8,217.91,174.2,217.91Z"/><path d="M190.81,228.54H184V211h6.84c5.51,0,9.32,3.78,9.32,8.72v.05C200.13,224.7,196.32,228.54,190.81,228.54Zm5.29-8.77a5,5,0,0,0-5.29-5.29h-3v10.57h3a5,5,0,0,0,5.29-5.23Z"/><path d="M211.56,228.54v-1.91a4.76,4.76,0,0,1-3.94,2.16c-2.88,0-4.56-1.91-4.56-5v-8.7h3.81v7.5c0,1.8.85,2.73,2.31,2.73s2.38-.93,2.38-2.73v-7.5h3.81v13.44Z"/><path d="M225.11,228.84a6.86,6.86,0,0,1-7-6.94v-.05a6.9,6.9,0,0,1,7-7,6.64,6.64,0,0,1,5.37,2.26l-2.33,2.51a3.92,3.92,0,0,0-3.06-1.48,3.43,3.43,0,0,0-3.26,3.65v.06a3.44,3.44,0,0,0,3.41,3.7,4.27,4.27,0,0,0,3.08-1.42l2.23,2.25A6.76,6.76,0,0,1,225.11,228.84Z"/><path d="M241.73,228.54l-3.51-5.49-1.33,1.4v4.09h-3.81v-18.3h3.81V220l4.46-4.89h4.56l-5.11,5.29,5.28,8.15Z"/><path d="M248.09,228.54v-18.3h3.81v18.3Z"/><path d="M255.56,213.63v-3.39h4v3.39Zm.1,14.91V215.1h3.81v13.44Z"/><path d="M271.54,228.54V221c0-1.8-.85-2.73-2.3-2.73s-2.38.93-2.38,2.73v7.5h-3.81V215.1h3.81V217a4.73,4.73,0,0,1,3.93-2.16c2.88,0,4.56,1.91,4.56,5v8.7Z"/><path d="M284.67,232.59a12.72,12.72,0,0,1-5.93-1.4l1.3-2.86a8.72,8.72,0,0,0,4.53,1.23c2.61,0,3.84-1.25,3.84-3.66v-.65a5.25,5.25,0,0,1-4.39,2.18,5.9,5.9,0,0,1-6-6.26v0a5.91,5.91,0,0,1,6-6.27,5.45,5.45,0,0,1,4.34,2V215.1h3.8v10.4C292.16,230.56,289.66,232.59,284.67,232.59Zm3.74-11.47a3.27,3.27,0,0,0-6.54,0v0a3.07,3.07,0,0,0,3.25,3.11,3.11,3.11,0,0,0,3.29-3.11Z"/><path d="M304.19,228.84a8.85,8.85,0,0,1-9-9v0a8.91,8.91,0,0,1,9.14-9.07,9.07,9.07,0,0,1,6.92,2.7l-2.46,2.83a6.45,6.45,0,0,0-4.48-2,5.2,5.2,0,0,0-5.09,5.47v.05a5.21,5.21,0,0,0,5.09,5.51,6.32,6.32,0,0,0,4.61-2.06l2.45,2.48A9,9,0,0,1,304.19,228.84Z"/><path d="M320.4,228.84a7,7,0,0,1-7.24-6.94v-.05a7.06,7.06,0,0,1,7.29-7,7,7,0,0,1,7.24,6.94v.06A7,7,0,0,1,320.4,228.84Zm3.54-7a3.57,3.57,0,0,0-3.54-3.71,3.44,3.44,0,0,0-3.48,3.65v.06a3.57,3.57,0,0,0,3.53,3.7,3.44,3.44,0,0,0,3.49-3.65Z"/><path d="M329.8,228.54v-4h4.06v4Z"/><path d="M149.82,258.6l-1.61-3.93H140.8l-1.6,3.93h-3.94l7.52-17.66h3.56l7.51,17.66Zm-5.31-13-2.33,5.68h4.66Z"/><path d="M161.87,258.9a6.85,6.85,0,0,1-7-6.94v-.05a6.9,6.9,0,0,1,7-7,6.61,6.61,0,0,1,5.36,2.26l-2.33,2.5a3.91,3.91,0,0,0-3-1.47,3.42,3.42,0,0,0-3.26,3.65v0a3.44,3.44,0,0,0,3.41,3.71,4.26,4.26,0,0,0,3.08-1.43l2.23,2.26A6.77,6.77,0,0,1,161.87,258.9Z"/><path d="M177.71,258.6v-1.45a5.17,5.17,0,0,1-4.06,1.7c-2.53,0-4.61-1.45-4.61-4.1v-.05c0-2.94,2.23-4.29,5.41-4.29a9.67,9.67,0,0,1,3.28.55v-.22c0-1.58-1-2.46-2.88-2.46a9.93,9.93,0,0,0-3.71.73l-.95-2.91A11.87,11.87,0,0,1,175.4,245c4.16,0,6,2.16,6,5.79v7.79Zm.07-5.41a5.9,5.9,0,0,0-2.43-.5c-1.63,0-2.63.65-2.63,1.85v.05c0,1,.85,1.63,2.08,1.63,1.78,0,3-1,3-2.35Z"/><path d="M194.37,258.6v-1.93a4.91,4.91,0,0,1-4.18,2.18c-3.14,0-6.12-2.45-6.12-6.94v0c0-4.48,2.93-6.94,6.12-6.94a5.16,5.16,0,0,1,4.18,2v-6.62h3.81V258.6Zm0-6.74a3.29,3.29,0,1,0-6.54,0v0a3.3,3.3,0,1,0,6.54,0Z"/><path d="M214.06,253.22h-9.34a3.11,3.11,0,0,0,3.28,2.63,4.39,4.39,0,0,0,3.26-1.38l2.18,1.93a7.1,7.1,0,0,1-12.5-4.44v-.05a6.69,6.69,0,0,1,6.63-7c4.49,0,6.54,3.49,6.54,7.29v0C214.11,252.64,214.09,252.87,214.06,253.22ZM207.57,248c-1.57,0-2.6,1.13-2.9,2.86h5.74C210.18,249.13,209.18,248,207.57,248Z"/><path d="M233.63,258.6v-7.49c0-1.8-.8-2.73-2.23-2.73s-2.3.93-2.3,2.73v7.49h-3.81v-7.49c0-1.8-.8-2.73-2.23-2.73s-2.31.93-2.31,2.73v7.49H217V245.17h3.8v1.91a4.8,4.8,0,0,1,4-2.16,4,4,0,0,1,3.79,2.13,5.51,5.51,0,0,1,4.41-2.13c2.83,0,4.53,1.71,4.53,4.94v8.74Z"/><path d="M248,258.93c-1,2.73-2.13,3.76-4.41,3.76a6.27,6.27,0,0,1-3.38-.93l1.28-2.76a3.44,3.44,0,0,0,1.62.53,1.26,1.26,0,0,0,1.33-.88l-5.26-13.48h4l3,9.15,2.93-9.15h4Z"/><path d="M31.24,234.62a46.05,46.05,0,0,0,2.26,14.51,39.92,39.92,0,0,0,14.66,20.2,26.59,26.59,0,0,0,15.05,5.19,25.73,25.73,0,0,0,6.37-.6,26.68,26.68,0,0,0,15.15-9.08,26.12,26.12,0,0,0,5.88-20.73,24.76,24.76,0,0,0-4.83-11.92c-.09-.11-.17-.24-.28-.4l1.27-1c3.9-2.95,8-5.63,12.1-8.26,1-.68,2-1.49,3-2.25a2.12,2.12,0,0,0,.5-.61.65.65,0,0,0-.18-.92,2,2,0,0,0-.55-.34,10.07,10.07,0,0,0-1.16-.42c-1.21-.34-2.43-.65-3.64-1a18.5,18.5,0,0,1-3.73-1.49.73.73,0,0,1-.43-.61c0-.28-.08-.56-.13-.84A15.58,15.58,0,0,0,85,203.23a17.68,17.68,0,0,0-15.5-1.33A15.49,15.49,0,0,0,60,211.11a17.6,17.6,0,0,0-.85,10.2A15.69,15.69,0,0,0,68,232.78a17.7,17.7,0,0,0,10.89,1.52.67.67,0,0,1,.73.26c.57.73,1.2,1.42,1.71,2.19a19.76,19.76,0,0,1,3,14.48,18.89,18.89,0,0,1-5.76,11.07,20.58,20.58,0,0,1-17.5,5.76,19.65,19.65,0,0,1-8.61-3.37,33.42,33.42,0,0,1-8.52-8.46,36.92,36.92,0,0,1-6.39-20.36,42.12,42.12,0,0,1,.58-8,41.31,41.31,0,0,1,5.4-14.63.58.58,0,0,0-.24-.83c-1.46-.71-2.94-1.47-4.42-2.26a.74.74,0,0,0-1,.27A47.71,47.71,0,0,0,31.24,234.62Zm47.91-6.78a10.62,10.62,0,0,1-3.23.44,11.45,11.45,0,0,1-4.7-.9,9.61,9.61,0,0,1-5.74-6.44,11.61,11.61,0,0,1,.19-7.14,9.41,9.41,0,0,1,5.7-5.92,11.74,11.74,0,0,1,9,0,9.64,9.64,0,0,1,6,7.52,11.37,11.37,0,0,1-.34,5.79A9.7,9.7,0,0,1,79.15,227.84Z"/><path d="M120.93,232.44a50.36,50.36,0,0,0-.91-7.83,45.46,45.46,0,0,0-7-16.91A40.76,40.76,0,0,0,102,196.57a.29.29,0,0,0-.31,0c-1.8,1.13-3.65,2.21-5.51,3.27a.29.29,0,0,0,0,.5A34.34,34.34,0,0,1,108.36,212a41,41,0,0,1,6.3,20.35,41.47,41.47,0,0,1-.46,8.76,41,41,0,0,1-4.53,13.48,34.67,34.67,0,0,1-11.78,12.75,36.41,36.41,0,0,1-13.3,5.12,14.33,14.33,0,0,0-2.19.39,13.86,13.86,0,0,0-2,1.06,60.24,60.24,0,0,1-7.09,3.45c-.67.27-1.35.52-2.07.78a.28.28,0,0,0,0,.54,12.87,12.87,0,0,0,1.54.39,24.17,24.17,0,0,0,5.44.34,52.33,52.33,0,0,0,9.25-1.14,41.9,41.9,0,0,0,13.89-5.69,41.08,41.08,0,0,0,14.92-17.12A48.19,48.19,0,0,0,120.93,232.44Z"/><path d="M49.87,250.51c2.71.1,5.42.23,8.13.27a25.63,25.63,0,0,0,6.42-.56,7.64,7.64,0,0,0,2.34-.93A3.1,3.1,0,0,0,68.18,247,8.85,8.85,0,0,0,68,244.1a39.69,39.69,0,0,0-1.76-5.94c-.05-.16-.11-.31-.17-.47-.13-.42-.09-.66.16-.85s.52-.17.9.12.72.58,1.07.88a16.54,16.54,0,0,1,4.45,6,9.64,9.64,0,0,1,.79,4.16,7.88,7.88,0,0,1-3.85,6.53,11.74,11.74,0,0,1-4.73,1.69,21.67,21.67,0,0,1-10.16-1.14,27.12,27.12,0,0,1-6.6-3.28l-.41-.29a.62.62,0,0,1-.2-.71.58.58,0,0,1,.57-.4c.45,0,.89,0,1.34,0l.45,0Z"/><path d="M81.32,219.6a3.69,3.69,0,0,1-3.44-5.32,3.44,3.44,0,0,1,2.7-2,4,4,0,0,1,2,.14,3.61,3.61,0,0,1,2.43,4,3.56,3.56,0,0,1-3.32,3.15Z"/><polygon points="71.31 189.17 71.31 189.17 71.31 189.17 71.31 189.17"/><path d="M67.67,190.13c-7.29,2-12.61,6.81-11.6,10.52l1.94,7.1a11,11,0,0,1,1-1.58c2.35-2.87,6.53-5.36,11.19-6.63s9.55-1.26,13,.05a10.74,10.74,0,0,1,1.7.83L83,193.32c-1-3.72-8-5.17-15.28-3.19Z"/><path d="M103.31,186.6l-39.07-9L45.1,195.75l3.42,12.53,8.23,1.88-2.46-9c-1.32-4.84,4.36-10.46,12.9-12.79s16.21-.36,17.54,4.48l2.46,9Z"/><path d="M48.32,214.72l-4.77-17.49L42,198.67l-6.9,6.54,9.26,2.11,2.15,7.89A4.2,4.2,0,0,0,44.48,220a3.93,3.93,0,0,0,1.35,2.08l1,3.56a.92.92,0,1,0,1.78-.49L48,223c.22,0,.45,0,.68,0l1.14,4.18a.92.92,0,0,0,1.78-.48l-1.14-4.18a3.72,3.72,0,0,0,.57-.37l.57,2.12a.93.93,0,0,0,1.79-.49l-1-3.54a4,4,0,0,0,.1-2.5,4.14,4.14,0,0,0-4.2-3.06Zm.79,6.41a2.33,2.33,0,0,1-1.22-4.49,2.33,2.33,0,0,1,1.22,4.49Z"/></g></svg>