<svg id="Capa_1" data-name="Capa 1" xmlns="http://www.w3.org/2000/svg" viewBox="0 0 980.49 751.9"><defs><style>.cls-1{fill:#fff;}.cls-2{fill:none;stroke:#403e56;stroke-miterlimit:10;stroke-width:2px;}.cls-3{fill:#403e56;}.cls-4{fill:#6466af;}.cls-5{fill:#e6e6e5;}.cls-6{fill:#f9b7b8;}.cls-7{fill:#302e41;}.cls-8{fill:#d1cde2;}</style></defs><title>TDCOblockchain2</title><rect class="cls-1" x="313.49" y="117" width="2" height="107"/><rect class="cls-1" x="313.49" y="255.85" width="2" height="94.15"/><rect class="cls-1" x="310.49" y="365" width="155" height="2"/><rect class="cls-1" x="244.49" y="392" width="2" height="85"/><rect class="cls-1" x="262.49" y="492" width="235" height="2"/><path class="cls-2" d="M563.9,637.87" transform="translate(-50.4 -160.87)"/><path class="cls-2" d="M563.9,555.87" transform="translate(-50.4 -160.87)"/><rect class="cls-1" x="691.49" y="49" width="2" height="101"/><rect class="cls-1" x="529.46" y="166" width="147.03" height="2"/><rect class="cls-1" x="512.49" y="182" width="2" height="135"/><path class="cls-3" d="M364.9,417.87a17,17,0,1,1,17-17A17,17,0,0,1,364.9,417.87Zm0-32a15,15,0,1,0,15,15A15,15,0,0,0,364.9,385.87Z" transform="translate(-50.4 -160.87)"/><path class="cls-3" d="M296.9,670.87a17,17,0,1,1,17-17h0A17,17,0,0,1,296.9,670.87Zm0-32a15,15,0,1,0,15,15h0A15,15,0,0,0,296.9,638.87Z" transform="translate(-50.4 -160.87)"/><circle class="cls-4" cx="514.44" cy="366.5" r="27.66"/><circle class="cls-4" cx="315.49" cy="366" r="16"/><rect class="cls-1" x="728.49" y="239" width="166" height="2"/><rect class="cls-1" x="711.49" y="255.85" width="2" height="94.15"/><rect class="cls-1" x="562.49" y="365" width="133" height="2"/><rect class="cls-1" x="796.49" y="374" width="138" height="2"/><rect class="cls-1" x="780.49" y="392" width="2" height="85"/><rect class="cls-1" x="529.49" y="492" width="235" height="2"/><rect class="cls-1" x="512.49" y="415" width="2" height="62"/><circle class="cls-4" cx="712.49" cy="240" r="16"/><path class="cls-3" d="M742.9,343.87a17,17,0,1,1,17-17A17,17,0,0,1,742.9,343.87Zm0-32a15,15,0,1,0,15,15,15,15,0,0,0-15-15Z" transform="translate(-50.4 -160.87)"/><path class="cls-3" d="M563.9,343.87a17,17,0,1,1,17-17A17,17,0,0,1,563.9,343.87Zm0-32a15,15,0,1,0,15,15,15,15,0,0,0-15-15Z" transform="translate(-50.4 -160.87)"/><path class="cls-3" d="M830.9,553.87a17,17,0,1,1,17-17h0A17,17,0,0,1,830.9,553.87Zm0-32a15,15,0,1,0,15,15h0A15,15,0,0,0,830.9,521.87Z" transform="translate(-50.4 -160.87)"/><circle class="cls-4" cx="780.49" cy="493" r="16"/><path class="cls-3" d="M563.9,670.87a17,17,0,1,1,17-17h0A17,17,0,0,1,563.9,670.87Zm0-32a15,15,0,1,0,15,15h0A15,15,0,0,0,563.9,638.87Z" transform="translate(-50.4 -160.87)"/><path class="cls-3" d="M761.9,543.87a17,17,0,1,1,17-17h0A17,17,0,0,1,761.9,543.87Zm0-32a15,15,0,1,0,15,15A15,15,0,0,0,761.9,511.87Z" transform="translate(-50.4 -160.87)"/><path class="cls-3" d="M296.9,502.87a20,20,0,1,0,20,20A20,20,0,0,0,296.9,502.87Zm0,6a6,6,0,1,1-6,6A6,6,0,0,1,296.9,508.87Zm0,28.89a14.57,14.57,0,0,1-12-6.41c.09-4,8-6.2,12-6.2s11.9,2.2,12,6.2A14.59,14.59,0,0,1,296.9,537.76Z" transform="translate(-50.4 -160.87)"/><path class="cls-3" d="M365.9,229.87a20,20,0,1,0,20,20A20,20,0,0,0,365.9,229.87Zm0,6a6,6,0,1,1-6,6A6,6,0,0,1,365.9,235.87Zm0,28.89a14.59,14.59,0,0,1-12-6.41c.09-4,8-6.2,12-6.2s11.9,2.2,12,6.2A14.59,14.59,0,0,1,365.9,264.76Z" transform="translate(-50.4 -160.87)"/><path class="cls-3" d="M742.9,160.87a20,20,0,1,0,20,20A20,20,0,0,0,742.9,160.87Zm0,6a6,6,0,1,1-6,6A6,6,0,0,1,742.9,166.87Zm0,28.89a14.57,14.57,0,0,1-12-6.41c.09-4,8-6.2,12-6.2s11.9,2.2,12,6.2A14.59,14.59,0,0,1,742.9,195.76Z" transform="translate(-50.4 -160.87)"/><path class="cls-3" d="M972.9,379.87a20,20,0,1,0,20,20A20,20,0,0,0,972.9,379.87Zm0,6a6,6,0,1,1-6,6A6,6,0,0,1,972.9,385.87Zm0,28.89a14.57,14.57,0,0,1-12-6.41c.09-4,8-6.2,12-6.2s11.9,2.2,12,6.2A14.59,14.59,0,0,1,972.9,414.76Z" transform="translate(-50.4 -160.87)"/><path class="cls-3" d="M1010.9,514.87a20,20,0,1,0,20,20A20,20,0,0,0,1010.9,514.87Zm0,6a6,6,0,1,1-6,6A6,6,0,0,1,1010.9,520.87Zm0,28.89a14.57,14.57,0,0,1-12-6.41c.09-4,8-6.2,12-6.2s11.9,2.2,12,6.2A14.59,14.59,0,0,1,1010.9,549.76Z" transform="translate(-50.4 -160.87)"/><path class="cls-5" d="M202.4,894.17c-2.84,25.87-152.22,23.7-152,0C53.25,868.29,202.63,870.46,202.4,894.17Z" transform="translate(-50.4 -160.87)"/><polygon class="cls-6" points="103.75 668.16 109.81 681.28 120.91 680.27 127.98 657.05 116.87 651 103.75 668.16"/><polygon class="cls-6" points="65.64 698.37 65.4 707.52 82.56 708.52 82.56 697.42 65.64 698.37"/><polygon class="cls-7" points="71.46 531.91 75.5 612.65 65.4 700.45 95.68 704.49 114.86 593.47 120.91 517.78 71.46 531.91"/><path class="cls-7" d="M74.43,663.51s-12.11,79.73,13.12,106,59.54,72.67,59.54,72.67l24.23-30.28-61.57-65.6,12.11-44.41,49.46-23.21-8.08-55.51-72.66-1Z" transform="translate(-50.4 -160.87)"/><circle class="cls-6" cx="133.97" cy="456.62" r="22.2" transform="translate(-75.45 -152.76) rotate(-3.17)"/><path class="cls-6" d="M114.8,461.66s-1,31.29-6.06,35.33,18.17,21.19,18.17,21.19L142.05,494v-22.2Z" transform="translate(-50.4 -160.87)"/><polygon class="cls-8" points="74.49 343.18 62.23 324.68 55.31 334.1 45.22 362.36 53.29 472.36 100.73 473.37 106.78 347.22 91.64 329.05 74.49 343.18"/><path class="cls-7" d="M176.36,511.12l8.08-1s2,1,3,8.07,13.12,69.64,13.12,69.64l-16.14,76.7L166.27,640.3l11.1-42.39-11.1-42.39Z" transform="translate(-50.4 -160.87)"/><polygon class="cls-7" points="23.02 349.23 16.96 349.23 1.82 430.98 15.95 494.57 30.08 471.35 26.04 446.12 28.06 423.92 35.13 410.8 23.02 349.23"/><path class="cls-7" d="M163.24,838.11s-6.05-2-6.05,2,4,16.15,4,16.15-6.05,37.34,3,35.32,16.15-19.17,17.16-24.22,6.05-31.29,6.05-31.29,8.08-19.17,3-20.18-19.17-5-19.17-5S179.39,836.09,163.24,838.11Z" transform="translate(-50.4 -160.87)"/><path class="cls-7" d="M134,869.4s-16.14-10.09-19.17-2a85,85,0,0,0-4,18.17s-4,13.12,12.11,11.1,14.13-2,15.14-8.08S134,869.4,134,869.4Z" transform="translate(-50.4 -160.87)"/><path class="cls-7" d="M120.85,456.62l4-1s3-17.16,10.09-15.14,25.23,4,25.23-4S143.06,421.29,133,422.3s-27.25,4-26.24,19.18,7.53,29.86,7.53,29.86l.52-9Z" transform="translate(-50.4 -160.87)"/><polygon class="cls-8" points="91.64 355.29 74.49 343.18 91.64 329.05 97.6 336.2 91.64 355.29"/><polygon class="cls-8" points="59.35 354.28 74.49 343.18 62.38 325.01 55.31 334.1 59.35 354.28"/><path class="cls-7" d="M183.43,510.11,151.13,497l-7.57-5.55L120.85,591.86l-15.14-45.42,4.55-58-41.89,21.7L82.5,578.74l2,26.24-6,21.19s-21.2,15.14-14.13,31.29,15.13,17.15,15.13,17.15,34.32-32.29,36.34-40.37,5-22.2,5-22.2S138,676.63,158.2,675.62s20.18-22.2,20.18-22.2l-5-22.2L165.26,608l4-38.35Z" transform="translate(-50.4 -160.87)"/><path class="cls-1" d="M562.2,548.69c1-.43,2-.84,3-1.29.69-.32,1.36-.68,2-1.06a4.41,4.41,0,0,1,1.49-.52A16.8,16.8,0,0,0,582,535a19.23,19.23,0,0,0,1.41-7.23,19.74,19.74,0,0,0-3.39-11.64,16.6,16.6,0,0,0-9.85-6.84,21,21,0,0,0-4.46-.64,19.48,19.48,0,0,0-7.42,1.05,17.38,17.38,0,0,0-8.91,7.08,18.64,18.64,0,0,0-2.95,7.91,21.32,21.32,0,0,0-.23,3.29,17.17,17.17,0,0,0,4.53,11.76,12.08,12.08,0,0,0,4.76,3.38,9.76,9.76,0,0,0,10.29-2.05,9,9,0,0,0,3-5.87,9.37,9.37,0,0,0-2.29-7.64c-.1-.12-.18-.21-.37-.17a8.57,8.57,0,0,1-6.27-1.31,7.56,7.56,0,0,1-3.33-5.29,8.36,8.36,0,0,1,.81-5.34,7.58,7.58,0,0,1,5.23-4,8.48,8.48,0,0,1,6.9,1.19,7.51,7.51,0,0,1,3.29,5.2.71.71,0,0,0,.41.58,16,16,0,0,0,3,1,6.29,6.29,0,0,1,.93.3c.49.21.55.55.13.89a19,19,0,0,1-1.53,1.14c-2.12,1.35-4.21,2.73-6.19,4.26l-.2.16.07.13a11.89,11.89,0,0,1,2.42,6.11,12.54,12.54,0,0,1-3.2,10.08,12.68,12.68,0,0,1-7.43,4.09,12.82,12.82,0,0,1-10.78-3,19.56,19.56,0,0,1-6.82-11.43,21.31,21.31,0,0,1-.42-5.69,22.4,22.4,0,0,1,5.73-14.1,20.05,20.05,0,0,1,11-6.29,23.43,23.43,0,0,1,6-.46,22.23,22.23,0,0,1,8.67,2.06,19.73,19.73,0,0,1,9,8.46,22.25,22.25,0,0,1,2.56,7.57,24.7,24.7,0,0,1,.13,6.54,21.82,21.82,0,0,1-4.73,11.5,19.42,19.42,0,0,1-10.78,6.74,23.73,23.73,0,0,1-6.05.66A7.46,7.46,0,0,1,562.2,548.69Zm7.73-29.47c0-.14,0-.41-.06-.68a4.7,4.7,0,0,0-1.73-3.17,5.45,5.45,0,0,0-4.59-1,4.73,4.73,0,0,0-3.25,2.13,5.37,5.37,0,0,0-.73,3.75,4.73,4.73,0,0,0,1.45,2.87,5.36,5.36,0,0,0,4.39,1.34A4.94,4.94,0,0,0,569.93,519.22Z" transform="translate(-50.4 -160.87)"/><path class="cls-1" d="M557.5,538a12,12,0,0,1-5.16-1.6c-.37-.21-.73-.45-1.1-.68-.15-.09-.27-.21-.2-.41s.22-.21.4-.21c1.71.06,3.41.14,5.12.17a9.72,9.72,0,0,0,2.84-.32l.37-.11a1.76,1.76,0,0,0,1.26-2.14,14.57,14.57,0,0,0-.91-3.41L560,529a.3.3,0,0,1,.09-.4.33.33,0,0,1,.42,0,8.83,8.83,0,0,1,2.2,2.4,5.49,5.49,0,0,1,.85,2.47,3.79,3.79,0,0,1-1.84,3.63A7.25,7.25,0,0,1,557.5,538Z" transform="translate(-50.4 -160.87)"/><path class="cls-1" d="M567.34,516.71a1.75,1.75,0,0,1,1.83,1.78,1.83,1.83,0,0,1-3.65,0A1.74,1.74,0,0,1,567.34,516.71Z" transform="translate(-50.4 -160.87)"/></svg>