<svg id="Capa_1" data-name="Capa 1" xmlns="http://www.w3.org/2000/svg" viewBox="0 0 980.49 751.9"><defs><style>.cls-1{fill:#403e56;}.cls-2{fill:none;stroke:#403e56;stroke-miterlimit:10;stroke-width:2px;}.cls-3{fill:#6466af;}.cls-4{fill:#e6e6e5;}.cls-5{fill:#f9b7b8;}.cls-6{fill:#302e41;}.cls-7{fill:#d1cde2;}</style></defs><title>TDCOblockchain</title><rect class="cls-1" x="313.49" y="117" width="2" height="107"/><rect class="cls-1" x="313.49" y="255.85" width="2" height="94.15"/><rect class="cls-1" x="310.49" y="365" width="155" height="2"/><rect class="cls-1" x="244.49" y="392" width="2" height="85"/><rect class="cls-1" x="262.49" y="492" width="235" height="2"/><path class="cls-2" d="M563.9,637.87" transform="translate(-50.4 -160.87)"/><path class="cls-2" d="M563.9,555.87" transform="translate(-50.4 -160.87)"/><rect class="cls-1" x="691.49" y="49" width="2" height="101"/><rect class="cls-1" x="529.46" y="166" width="147.03" height="2"/><rect class="cls-1" x="512.49" y="182" width="2" height="135"/><path class="cls-1" d="M364.9,417.87a17,17,0,1,1,17-17A17,17,0,0,1,364.9,417.87Zm0-32a15,15,0,1,0,15,15A15,15,0,0,0,364.9,385.87Z" transform="translate(-50.4 -160.87)"/><path class="cls-1" d="M296.9,670.87a17,17,0,1,1,17-17h0A17,17,0,0,1,296.9,670.87Zm0-32a15,15,0,1,0,15,15h0A15,15,0,0,0,296.9,638.87Z" transform="translate(-50.4 -160.87)"/><circle class="cls-3" cx="315.49" cy="366" r="16"/><circle class="cls-3" cx="514.39" cy="366" r="27.66"/><rect class="cls-1" x="728.49" y="239" width="166" height="2"/><rect class="cls-1" x="711.49" y="255.85" width="2" height="94.15"/><rect class="cls-1" x="562.49" y="365" width="133" height="2"/><rect class="cls-1" x="796.49" y="374" width="138" height="2"/><rect class="cls-1" x="780.49" y="392" width="2" height="85"/><rect class="cls-1" x="529.49" y="492" width="235" height="2"/><rect class="cls-1" x="512.49" y="415" width="2" height="62"/><circle class="cls-3" cx="712.49" cy="240" r="16"/><path class="cls-1" d="M742.9,343.87a17,17,0,1,1,17-17A17,17,0,0,1,742.9,343.87Zm0-32a15,15,0,1,0,15,15,15,15,0,0,0-15-15Z" transform="translate(-50.4 -160.87)"/><path class="cls-1" d="M563.9,343.87a17,17,0,1,1,17-17A17,17,0,0,1,563.9,343.87Zm0-32a15,15,0,1,0,15,15,15,15,0,0,0-15-15Z" transform="translate(-50.4 -160.87)"/><path class="cls-1" d="M830.9,553.87a17,17,0,1,1,17-17h0A17,17,0,0,1,830.9,553.87Zm0-32a15,15,0,1,0,15,15h0A15,15,0,0,0,830.9,521.87Z" transform="translate(-50.4 -160.87)"/><circle class="cls-3" cx="780.49" cy="493" r="16"/><path class="cls-1" d="M563.9,670.87a17,17,0,1,1,17-17h0A17,17,0,0,1,563.9,670.87Zm0-32a15,15,0,1,0,15,15h0A15,15,0,0,0,563.9,638.87Z" transform="translate(-50.4 -160.87)"/><path class="cls-1" d="M761.9,543.87a17,17,0,1,1,17-17h0A17,17,0,0,1,761.9,543.87Zm0-32a15,15,0,1,0,15,15A15,15,0,0,0,761.9,511.87Z" transform="translate(-50.4 -160.87)"/><path class="cls-1" d="M296.9,502.87a20,20,0,1,0,20,20A20,20,0,0,0,296.9,502.87Zm0,6a6,6,0,1,1-6,6A6,6,0,0,1,296.9,508.87Zm0,28.89a14.57,14.57,0,0,1-12-6.41c.09-4,8-6.2,12-6.2s11.9,2.2,12,6.2A14.59,14.59,0,0,1,296.9,537.76Z" transform="translate(-50.4 -160.87)"/><path class="cls-1" d="M365.9,229.87a20,20,0,1,0,20,20A20,20,0,0,0,365.9,229.87Zm0,6a6,6,0,1,1-6,6A6,6,0,0,1,365.9,235.87Zm0,28.89a14.59,14.59,0,0,1-12-6.41c.09-4,8-6.2,12-6.2s11.9,2.2,12,6.2A14.59,14.59,0,0,1,365.9,264.76Z" transform="translate(-50.4 -160.87)"/><path class="cls-1" d="M742.9,160.87a20,20,0,1,0,20,20A20,20,0,0,0,742.9,160.87Zm0,6a6,6,0,1,1-6,6A6,6,0,0,1,742.9,166.87Zm0,28.89a14.57,14.57,0,0,1-12-6.41c.09-4,8-6.2,12-6.2s11.9,2.2,12,6.2A14.59,14.59,0,0,1,742.9,195.76Z" transform="translate(-50.4 -160.87)"/><path class="cls-1" d="M972.9,379.87a20,20,0,1,0,20,20A20,20,0,0,0,972.9,379.87Zm0,6a6,6,0,1,1-6,6A6,6,0,0,1,972.9,385.87Zm0,28.89a14.57,14.57,0,0,1-12-6.41c.09-4,8-6.2,12-6.2s11.9,2.2,12,6.2A14.59,14.59,0,0,1,972.9,414.76Z" transform="translate(-50.4 -160.87)"/><path class="cls-1" d="M1010.9,514.87a20,20,0,1,0,20,20A20,20,0,0,0,1010.9,514.87Zm0,6a6,6,0,1,1-6,6A6,6,0,0,1,1010.9,520.87Zm0,28.89a14.57,14.57,0,0,1-12-6.41c.09-4,8-6.2,12-6.2s11.9,2.2,12,6.2A14.59,14.59,0,0,1,1010.9,549.76Z" transform="translate(-50.4 -160.87)"/><path class="cls-4" d="M202.4,894.17c-2.84,25.87-152.22,23.7-152,0C53.25,868.29,202.63,870.46,202.4,894.17Z" transform="translate(-50.4 -160.87)"/><polygon class="cls-5" points="103.75 668.16 109.81 681.28 120.91 680.27 127.98 657.05 116.87 651 103.75 668.16"/><polygon class="cls-5" points="65.64 698.37 65.4 707.52 82.56 708.52 82.56 697.42 65.64 698.37"/><polygon class="cls-6" points="71.46 531.91 75.5 612.65 65.4 700.45 95.68 704.49 114.86 593.47 120.91 517.78 71.46 531.91"/><path class="cls-6" d="M74.43,663.51s-12.11,79.73,13.12,106,59.54,72.67,59.54,72.67l24.23-30.28-61.57-65.6,12.11-44.41,49.46-23.21-8.08-55.51-72.66-1Z" transform="translate(-50.4 -160.87)"/><circle class="cls-5" cx="133.97" cy="456.62" r="22.2" transform="translate(-75.45 -152.76) rotate(-3.17)"/><path class="cls-5" d="M114.8,461.66s-1,31.29-6.06,35.33,18.17,21.19,18.17,21.19L142.05,494v-22.2Z" transform="translate(-50.4 -160.87)"/><polygon class="cls-7" points="74.49 343.18 62.23 324.68 55.31 334.1 45.22 362.36 53.29 472.36 100.73 473.37 106.78 347.22 91.64 329.05 74.49 343.18"/><path class="cls-6" d="M176.36,511.12l8.08-1s2,1,3,8.07,13.12,69.64,13.12,69.64l-16.14,76.7L166.27,640.3l11.1-42.39-11.1-42.39Z" transform="translate(-50.4 -160.87)"/><polygon class="cls-6" points="23.02 349.23 16.96 349.23 1.82 430.98 15.95 494.57 30.08 471.35 26.04 446.12 28.06 423.92 35.13 410.8 23.02 349.23"/><path class="cls-6" d="M163.24,838.11s-6.05-2-6.05,2,4,16.15,4,16.15-6.05,37.34,3,35.32,16.15-19.17,17.16-24.22,6.05-31.29,6.05-31.29,8.08-19.17,3-20.18-19.17-5-19.17-5S179.39,836.09,163.24,838.11Z" transform="translate(-50.4 -160.87)"/><path class="cls-6" d="M134,869.4s-16.14-10.09-19.17-2a85,85,0,0,0-4,18.17s-4,13.12,12.11,11.1,14.13-2,15.14-8.08S134,869.4,134,869.4Z" transform="translate(-50.4 -160.87)"/><path class="cls-6" d="M120.85,456.62l4-1s3-17.16,10.09-15.14,25.23,4,25.23-4S143.06,421.29,133,422.3s-27.25,4-26.24,19.18,7.53,29.86,7.53,29.86l.52-9Z" transform="translate(-50.4 -160.87)"/><polygon class="cls-7" points="91.64 355.29 74.49 343.18 91.64 329.05 97.6 336.2 91.64 355.29"/><polygon class="cls-7" points="59.35 354.28 74.49 343.18 62.38 325.01 55.31 334.1 59.35 354.28"/><path class="cls-6" d="M183.43,510.11,151.13,497l-7.57-5.55L120.85,591.86l-15.14-45.42,4.55-58-41.89,21.7L82.5,578.74l2,26.24-6,21.19s-21.2,15.14-14.13,31.29,15.13,17.15,15.13,17.15,34.32-32.29,36.34-40.37,5-22.2,5-22.2S138,676.63,158.2,675.62s20.18-22.2,20.18-22.2l-5-22.2L165.26,608l4-38.35Z" transform="translate(-50.4 -160.87)"/><path class="cls-1" d="M562.26,548.19c1-.43,2-.84,3-1.29.69-.32,1.36-.68,2-1.06a4.19,4.19,0,0,1,1.5-.52,16.8,16.8,0,0,0,13.37-10.83,19.44,19.44,0,0,0,1.42-7.23,19.82,19.82,0,0,0-3.4-11.64,16.58,16.58,0,0,0-9.84-6.84,21.14,21.14,0,0,0-4.47-.64,19.48,19.48,0,0,0-7.42,1.05,17.39,17.39,0,0,0-8.9,7.08,18.53,18.53,0,0,0-3,7.91,22.64,22.64,0,0,0-.22,3.29,17.16,17.16,0,0,0,4.52,11.76,12.15,12.15,0,0,0,4.76,3.38,9.76,9.76,0,0,0,10.29-2.05,9,9,0,0,0,3-5.87,9.4,9.4,0,0,0-2.28-7.64.34.34,0,0,0-.38-.17,8.57,8.57,0,0,1-6.27-1.31,7.55,7.55,0,0,1-3.32-5.29,8.29,8.29,0,0,1,.8-5.34,7.6,7.6,0,0,1,5.24-4,8.45,8.45,0,0,1,6.89,1.19,7.52,7.52,0,0,1,3.3,5.2.67.67,0,0,0,.41.58,15.87,15.87,0,0,0,3,1,6.29,6.29,0,0,1,.93.3c.49.21.55.55.14.89a19.14,19.14,0,0,1-1.54,1.14c-2.11,1.35-4.2,2.73-6.19,4.26l-.2.16.08.13a12,12,0,0,1,2.41,6.11,12.85,12.85,0,0,1-10.63,14.17,12.83,12.83,0,0,1-10.78-3,19.66,19.66,0,0,1-6.82-11.43,21.73,21.73,0,0,1-.42-5.69,22.4,22.4,0,0,1,5.73-14.1,20.05,20.05,0,0,1,11-6.29,23.47,23.47,0,0,1,6-.46,22.27,22.27,0,0,1,8.67,2.06,19.66,19.66,0,0,1,9,8.46,22.25,22.25,0,0,1,2.56,7.57,23.88,23.88,0,0,1,.13,6.54,21.8,21.8,0,0,1-4.72,11.5A19.48,19.48,0,0,1,570.88,548a23.73,23.73,0,0,1-6,.66A7.4,7.4,0,0,1,562.26,548.19ZM570,518.72c0-.14,0-.41-.07-.68a4.66,4.66,0,0,0-1.73-3.17,5.45,5.45,0,0,0-4.59-1,4.69,4.69,0,0,0-3.24,2.13,5.32,5.32,0,0,0-.74,3.75,4.74,4.74,0,0,0,1.46,2.87,5.34,5.34,0,0,0,4.39,1.34A5,5,0,0,0,570,518.72Z" transform="translate(-50.4 -160.87)"/><path class="cls-1" d="M557.55,537.54a11.93,11.93,0,0,1-5.15-1.6c-.38-.21-.74-.45-1.1-.68-.16-.09-.27-.21-.21-.41s.22-.21.41-.21c1.7.06,3.41.14,5.11.17a9.79,9.79,0,0,0,2.85-.32l.36-.11a1.75,1.75,0,0,0,1.26-2.14,15.05,15.05,0,0,0-.9-3.41c0-.11-.08-.22-.13-.34a.31.31,0,0,1,.1-.4.32.32,0,0,1,.41,0,8.87,8.87,0,0,1,2.21,2.4,5.47,5.47,0,0,1,.84,2.47,3.79,3.79,0,0,1-1.83,3.63A7.28,7.28,0,0,1,557.55,537.54Z" transform="translate(-50.4 -160.87)"/><path class="cls-1" d="M567.4,516.21a1.74,1.74,0,0,1,1.82,1.78,1.78,1.78,0,0,1-1.83,1.81,1.76,1.76,0,0,1-1.81-1.79A1.73,1.73,0,0,1,567.4,516.21Z" transform="translate(-50.4 -160.87)"/></svg>