<svg id="Capa_1" data-name="Capa 1" xmlns="http://www.w3.org/2000/svg" viewBox="0 0 81 81"><defs><style>.cls-1{fill:#fff;}</style></defs><title>user_reviews</title><path class="cls-1" d="M24.11,50.42v7.22H56.3V50.42a7.84,7.84,0,0,0-7.9-7.9H31.84a7.91,7.91,0,0,0-7.73,7.9Z"/><path class="cls-1" d="M40.16,39.32a8.95,8.95,0,1,0-9-8.9A9,9,0,0,0,40.16,39.32Z"/><path class="cls-1" d="M65,58.57l2.94,1.68.09-.17a33.49,33.49,0,0,0,6.3-19.66A33.72,33.72,0,0,0,40.5,6.3a33.95,33.95,0,1,0,0,67.89,31.05,31.05,0,0,0,9.33-1.34l.16-.08-.67-3.37-.25.09a31.09,31.09,0,0,1-8.74,1.34A30.4,30.4,0,1,1,65.12,58.4Z"/><path class="cls-1" d="M69.24,11.93A40.54,40.54,0,0,0,40.5,0,38.37,38.37,0,0,0,29.66,1.51l-.17.09.59,3.1.25-.08A38.76,38.76,0,0,1,40.5,3.19,37.35,37.35,0,1,1,3.19,40.5a36.93,36.93,0,0,1,6.89-21.59l.17-.17-2.77-1.6-.09.17A40.47,40.47,0,1,0,81,40.58,40.19,40.19,0,0,0,69.24,11.93Z"/></svg>